<svg width="63" height="285" viewBox="0 0 63 285" fill="none" xmlns="http://www.w3.org/2000/svg">
<g clip-path="url(#clip0_1178:158)">
<path fill-rule="evenodd" clip-rule="evenodd" d="M56.8178 84.4517C58.0838 80.5514 55.5954 78.5735 55.137 75.6399C54.0456 75.0843 53.5 73.9176 52.6269 73.0731C49.4903 70.1564 45.4248 68.4912 41.1782 68.3838C31.2248 68.1393 18.4447 68.8172 9.33165 68.6727C8.18569 69.8617 5.98111 69.995 5.42451 71.7952C4.43135 72.2508 2.91432 72.1841 2.07395 72.7953C1.74654 73.1953 2.56509 73.3508 2.35772 74.0731C1.67015 74.8398 0.000343297 74.6176 -0.0214844 76.0622C3.31815 77.7512 6.47223 75.7733 9.47353 74.7843C14.0901 73.2731 21.3151 72.7397 24.9712 75.0621C25.592 74.8399 26.2541 74.7634 26.908 74.8385C27.5619 74.9135 28.1907 75.1381 28.7474 75.4955C27.9397 77.0511 26.008 79.0624 27.2085 81.3181C30.0025 81.2292 29.8933 84.085 32.5127 84.1628C35.3939 86.0518 39.0609 88.4742 42.9899 89.4299C44.6161 89.8188 46.4496 89.7077 47.8793 90.2744C45.9694 90.4966 44.6052 89.7299 42.9899 89.8521C45.762 90.5855 48.0758 91.2745 50.8042 90.4188C53.4855 89.2876 55.638 87.1516 56.8178 84.4517ZM35.8632 80.0069C35.7732 78.8978 36.0708 77.792 36.7036 76.8845C38.7335 77.0734 40.8399 77.7623 42.9899 77.9957C43.7199 77.9933 44.4492 78.0416 45.1727 78.1401C47.0499 78.7402 46.7879 81.6404 45.1727 82.5849C43.2628 83.6739 36.3434 82.5626 35.885 80.0402L35.8632 80.0069Z" fill="#363538"/>
<path fill-rule="evenodd" clip-rule="evenodd" d="M14.7991 56.5822C14.7991 57.26 13.5876 57.5156 13.9696 58.149C17.7253 56.476 21.2838 54.3774 24.5779 51.8929C27.133 50.1304 29.5587 48.1806 31.8356 46.0592C34.5858 43.2701 36.2011 39.6808 38.9623 36.9695C41.719 40.0434 44.7076 42.8931 47.9007 45.4924C50.2329 47.6762 52.8699 49.4961 55.726 50.8928C56.8174 50.5595 57.1666 48.9593 58.378 49.1927C55.5295 45.8591 53.3904 41.9032 50.5637 38.3807C48.1954 35.4583 45.4997 33.0248 43.437 30.1357C48.9594 31.7136 56.3699 31.4136 59.3603 27.4355C59.6549 27.3244 60.2443 27.5021 60.7572 27.291C62.4816 25.4909 62.7108 22.6351 62.7108 19.6237C62.7108 11.9676 58.2689 6.56718 55.1694 1.42233C54.2417 1.08897 53.9034 0.155568 52.7901 0C51.4696 0.833398 49.5706 1.11117 48.3264 1.98902C47.9129 3.08116 47.3975 4.13049 46.7875 5.12261C45.9908 6.58939 44.6593 7.53393 44.9758 9.66743C45.3906 12.4677 48.25 15.9346 48.4683 18.4792C42.3811 17.9197 36.2546 17.9681 30.1767 18.6237C25.4837 19.2237 21.1727 20.846 16.9054 22.3239C16.6108 23.0129 15.3993 22.7795 15.2356 23.6018C17.5057 23.0462 19.5248 22.0795 22.2096 22.8906C22.5916 23.0018 22.8426 23.4463 23.1918 23.6018C23.8357 23.8796 24.5779 23.9797 25.2873 24.313C27.4186 25.2957 29.6052 26.149 31.8356 26.8688C25.4728 40.3365 12.0706 47.3148 7.70508 62.2715C8.55636 61.9604 8.86195 61.0826 9.88785 60.9937C10.9028 58.8713 12.8128 57.6823 14.7991 56.5822Z" fill="#363538"/>
<path fill-rule="evenodd" clip-rule="evenodd" d="M49.178 64.6833C48.8373 63.6585 48.4177 62.6627 47.9229 61.7053C47.7592 61.9719 47.7592 62.3831 47.2244 62.272C46.7115 61.7386 45.4673 61.972 45.4018 60.9941C45.5561 61.0653 45.7235 61.1022 45.8929 61.1022C46.0623 61.1022 46.2298 61.0653 46.384 60.9941C46.4805 60.4301 46.7802 59.9229 47.2244 59.5718C47.4645 59.694 47.6282 59.9162 47.9229 59.994C48.0757 59.2162 48.7414 58.8162 49.0143 58.005C50.5204 53.8491 45.2927 46.5374 41.6147 46.3485C40.0213 46.2707 37.4347 46.9041 36.0268 46.493C34.5534 48.5931 31.3339 49.671 31.4212 52.8935C31.4212 52.4712 31.7704 51.86 32.1196 52.1823C32.0432 53.9491 31.7158 57.3161 33.5166 58.005C34.4989 59.7496 35.2083 61.772 36.7253 62.9832C37.9088 63.7448 39.243 64.2304 40.6325 64.4055C41.1563 64.5277 41.6256 64.9277 42.0294 64.9722C42.6406 65.05 44.2668 64.1943 44.2668 65.5389C44.624 65.2745 45.037 65.0986 45.4728 65.0253C45.9085 64.952 46.3551 64.9833 46.7769 65.1166C46.9079 65.5611 46.9188 66.1056 47.4754 66.1056C47.8407 66.002 48.1808 65.822 48.4739 65.5771C48.7671 65.3323 49.0069 65.0278 49.178 64.6833Z" fill="#363538"/>
<path fill-rule="evenodd" clip-rule="evenodd" d="M34.6514 226.117C35.2516 224.406 36.976 223.839 37.9255 222.495C36.6934 221.589 35.3553 220.842 33.942 220.272C33.5382 220.483 34.1821 220.861 33.8001 220.995C31.3772 220.195 27.6119 219.283 28.234 216.35C26.6079 216.183 27.6883 213.15 26.9571 212.138C27.1754 212.138 27.4482 212.138 27.3827 211.849C26.9244 210.594 28.0812 209.127 27.9502 208.227C27.817 208.781 27.5702 209.3 27.226 209.75C26.8818 210.2 26.448 210.571 25.953 210.838C26.4005 210.761 26.335 211.227 26.6624 211.272C26.5424 210.972 26.8916 210.472 26.9571 210.838C26.5096 212.238 26.7606 214.25 26.6624 215.483C27.0008 215.483 27.3391 215.572 27.2409 216.061C26.7716 215.905 26.9353 215.694 26.5205 216.061C26.109 214.897 25.9165 213.664 25.953 212.427C25.7457 212.427 25.4292 212.483 25.3855 212.283C25.5056 210.06 25.8221 207.094 26.9571 206.193C27.0444 206.116 27.1645 206.36 27.2409 206.338C27.1426 205.849 26.9462 205.705 27.5246 205.905C27.35 204.393 28.7797 203.46 29.7074 202.571C30.2094 202.882 30.7988 203.104 30.7988 203.882C29.5215 204.931 28.5793 206.343 28.0921 207.938C29.3036 206.827 29.9147 205.049 31.3663 204.171C31.4427 204.427 30.9406 204.771 31.3663 204.893C31.5191 204.049 32.294 204.816 32.3594 205.327C32.1739 205.871 31.4645 205.871 31.5082 206.638C31.9229 206.916 32.4467 205.171 33.0688 206.06C33.1343 205.705 32.8069 205.738 32.927 205.327C34.2912 203.793 35.2298 202.593 37.489 202.138C37.7182 201.793 37.8164 201.304 38.0565 201.026C38.8314 200.782 38.5585 201.582 39.2024 201.471C39.4316 199.637 41.2542 199.437 42.0509 199.004C42.1492 195.393 45.9799 194.415 48.3264 192.615C48.9157 192.448 48.883 192.915 49.3196 192.904C49.4287 192.281 50.1163 192.248 50.1818 191.592C51.7315 191.148 51.9607 189.37 53.8815 189.27C54.0998 188.959 54.0452 188.37 54.46 188.259C54.9226 188.081 55.3966 187.937 55.8788 187.825C57.4504 186.414 57.8214 184.647 57.4503 182.014C55.9988 180.792 55.2021 178.891 52.8884 178.536C51.917 179.269 50.0617 179.036 48.1845 178.825C46.6675 180.869 45.7616 179.058 44.19 177.802C43.1248 176.774 41.8611 175.984 40.4793 175.48C38.9841 173.135 36.5504 171.757 36.1138 168.368C38.3839 166.935 40.4793 167.89 42.6621 168.513C45.8053 169.435 50.8038 169.768 53.4995 168.957C53.4995 169.179 53.4995 169.457 53.7833 169.391V167.791C50.7056 165.035 45.2814 164.646 40.2392 163.868C39.2899 161.824 38.7589 159.605 38.6786 157.345C38.5258 155.945 37.9582 154.578 38.2529 153.423C38.6567 151.823 42.171 152.389 44.0918 152.112C47.9335 151.567 51.0985 150.567 52.3645 147.767C51.9607 146.355 50.4546 145.389 50.3673 144.133C47.4642 143.022 44.2883 141.911 40.9596 140.799C37.6308 139.688 33.8983 138.766 32.4031 136.588C37.2379 132.232 47.2459 135.399 52.5064 131.654C53.7178 132.21 54.329 131.154 55.4968 131.21C55.6387 130.432 56.2171 130.099 56.4899 129.476C55.9661 128.565 55.0821 127.998 54.6455 127.01C54.3399 127.443 53.8924 126.81 53.3577 127.01C48.6974 121.931 44.4956 116.386 37.2489 113.942C35.841 111.408 32.3813 107.83 31.9775 104.074C31.8574 102.963 31.8902 101.552 32.545 101.319C35.4175 101.169 38.2631 101.947 40.6758 103.541C40.6525 106.114 41.0851 108.67 41.9527 111.086C44.8885 111.975 47.2568 113.864 50.5092 113.986C50.9894 113.275 51.2404 113.686 52.0808 113.553C52.1899 112.853 52.9648 112.875 52.7901 112.242C53.1394 112.52 53.3904 112.897 54.0671 112.831C53.7833 111.953 54.5691 112.175 54.9292 111.953C55.1148 109.73 56.61 108.075 56.0206 106.152C55.2348 103.33 52.4736 101.207 50.3236 99.6185C51.415 101.041 56.1625 104.352 54.46 106.441C52.7137 102.119 49.4178 99.374 45.7289 97.0072C45.3925 95.1682 45.6934 93.2673 46.5802 91.629C43.7644 90.5178 40.2938 91.4401 39.7372 93.9514C36.9544 93.5475 34.1368 93.4506 31.3335 93.6625C30.9952 93.7625 31.1153 94.3292 30.7551 94.3959C26.3023 95.1849 26.6406 100.419 27.0553 104.986C27.3609 108.43 29.3254 110.475 30.4713 112.531C28.7906 112.931 28.0921 115.12 27.9066 117.475C27.2954 117.275 27.4591 117.887 27.1972 118.053C27.1972 124.032 31.1371 126.032 34.1821 128.932C34.267 128.859 34.368 128.808 34.4765 128.783C34.5849 128.759 34.6976 128.761 34.8049 128.791C34.9122 128.82 35.0109 128.876 35.0925 128.953C35.1741 129.03 35.2362 129.125 35.2735 129.232C32.5559 130.343 28.9107 131.71 27.8629 134.788C27.7861 135.668 27.6438 136.541 27.4373 137.399C27.2954 137.744 27.0662 137.799 27.0117 138.122C26.6733 139.966 28.1031 141.455 29.2927 142.333C31.4754 143.977 35.077 144.722 37.4126 146.111C35.5129 146.649 33.5445 146.892 31.5736 146.833C30.9516 147.567 30.0785 147.422 29.2927 148.145C28.5855 149.353 27.9655 150.612 27.4373 151.911C28.0812 152.323 29.6201 151.789 30.2858 152.2C30.2858 152.723 29.6201 152.489 29.7183 153.078C30.6597 153.49 31.6918 153.64 32.7087 153.512C33.8001 156.99 34.2585 161.034 35.8519 163.957C33.8667 164.75 31.9563 165.724 30.1439 166.868C30.2967 168.335 29.2163 168.535 28.8561 169.479C29.4673 171.402 31.6828 172.224 31.4318 174.558C30.1767 175.013 29.1071 176.525 28.1576 177.313C27.7101 177.68 27.0662 177.547 26.8807 177.747C26.3787 178.547 26.5206 179.969 26.4442 181.236C26.2586 181.38 25.9203 181.38 25.7347 181.525C25.6147 182.136 26.0076 182.214 26.0185 182.636C25.7675 182.636 25.3091 182.481 25.451 182.925C26.1822 186.492 28.5287 188.403 30.4386 190.759C27.9284 194.259 25.32 197.637 22.8862 201.204C21.6202 204.871 19.6121 209.76 20.3215 213.983C20.3215 214.216 19.9504 214.094 20.0377 214.416C20.8453 216.394 21.0745 218.961 22.4606 220.372C21.7621 221.206 22.8317 222.273 22.7444 223.417C24.3141 224.904 26.2449 225.938 28.3378 226.413C30.4307 226.888 32.6101 226.786 34.6514 226.117ZM47.748 106.664C46.7439 106.664 45.085 106.175 45.1832 104.63C46.3182 105.041 46.9076 105.986 47.7698 106.664H47.748ZM44.8885 125.243C42.5202 125.043 40.3484 123.498 38.0455 122.92C37.0415 121.431 35.208 120.776 34.9133 118.564C39.0714 119.365 42.0618 122.609 45.1832 124.954C45.2596 125.176 45.085 125.254 44.9104 125.243H44.8885ZM36.0811 180.98C37.9037 180.903 38.744 181.847 40.2065 182.092C39.1151 182.092 39.1151 183.67 38.3621 183.692C37.609 183.714 36.8996 181.703 36.0811 180.98ZM25.5274 207.394C25.2873 207.394 25.2545 207.282 25.2436 207.105C24.6652 207.46 25.2436 207.694 25.2436 208.216C24.4688 208.638 24.687 210.072 24.3814 210.972C24.3814 208.883 24.6106 205.871 26.2368 205.016C25.961 205.339 25.7552 205.718 25.633 206.128C25.5107 206.537 25.4747 206.969 25.5274 207.394ZM26.6188 205.505C26.335 204.871 27.0553 204.016 27.481 203.627C27.481 204.504 26.8261 204.793 26.6624 205.505H26.6188ZM27.7647 203.471C27.3063 203.215 27.9721 201.949 28.4741 201.738C29.0307 202.571 27.7757 202.682 27.8084 203.471H27.7647ZM26.335 203.627C26.4769 203.227 26.4005 202.615 27.0553 202.749C27.0283 202.95 26.9521 203.14 26.8339 203.303C26.7157 203.466 26.5591 203.597 26.3787 203.682L26.335 203.627ZM32.3267 203.038C32.6323 203.271 31.8029 203.56 31.7592 203.916C31.3117 203.493 32.1412 203.204 32.3704 203.038H32.3267ZM35.459 201.738C34.6404 203.027 33.2762 203.782 32.3267 204.927C32.1935 204.652 32.098 204.361 32.0429 204.06C33.4399 204.138 34.0838 201.582 35.5026 201.738H35.459ZM38.8859 200.426C38.6131 200.571 38.4057 199.993 38.3184 200.426C38.2508 200.377 38.1957 200.312 38.1578 200.237C38.1198 200.161 38.0999 200.078 38.0999 199.993C38.0999 199.908 38.1198 199.825 38.1578 199.749C38.1957 199.674 38.2508 199.609 38.3184 199.56C38.3402 200.004 38.6567 199.982 38.9296 200.426H38.8859ZM40.5994 198.537C40.3375 198.026 40.8722 197.226 41.5925 197.237C41.3088 197.682 41.4507 198.593 40.643 198.537H40.5994ZM35.1425 197.526C34.826 198.16 34.0511 198.36 33.8656 199.126C34.0729 199.693 34.4549 198.504 34.575 198.982C33.6254 200.671 32.1303 201.804 31.148 203.427C30.6678 203.06 30.2094 202.649 29.7292 202.315C31.6282 200.738 32.7196 198.415 35.2189 197.526H35.1425ZM22.1769 204.927C22.4715 204.86 22.4388 205.138 22.4606 205.36C23.3337 204.793 22.2532 203.76 23.0281 203.327C23.3337 203.327 22.8753 204.104 23.3119 203.627C23.2058 204.795 22.868 205.929 22.3187 206.96C22.0987 206.672 21.9739 206.319 21.9622 205.954C21.9504 205.589 22.0523 205.229 22.2532 204.927H22.1769ZM21.3146 207.682C21.5183 208.201 21.5987 208.761 21.5494 209.317C21.5001 209.873 21.3224 210.41 21.0309 210.883C20.7362 209.916 21.3911 208.749 21.3911 207.682H21.3146ZM20.7471 212.127C21.0091 210.438 20.9654 211.461 21.0309 212.416C20.9545 212.438 21.0091 212.183 20.8017 212.183L20.7471 212.127ZM21.4565 211.983C21.773 211.983 21.7621 212.35 21.7403 212.705C21.3255 212.872 21.3037 212.261 21.5329 212.038L21.4565 211.983ZM21.3146 213.439C21.3801 213.216 21.5002 213.439 21.7403 213.439C21.6479 213.803 21.6479 214.185 21.7403 214.55C21.3583 215.161 21.7185 213.605 21.3911 213.494L21.3146 213.439ZM22.8862 212.861C22.8862 212.55 22.3842 213.005 22.4606 213.294C21.3692 207.994 24.2941 204.404 25.8766 200.949H26.3023C26.0731 202.393 24.7962 203.693 24.1195 205.393C23.0318 208.611 22.8354 212.071 23.552 215.394C22.8098 215.283 23.2464 213.739 22.9845 212.916L22.8862 212.861Z" fill="#363538"/>
<path fill-rule="evenodd" clip-rule="evenodd" d="M43.5032 258.664C44.3971 257.981 45.2135 257.198 45.937 256.331C48.0434 253.708 48.2726 252.508 48.2726 252.119C48.2726 251.964 48.2726 251.875 48.0107 251.875C47.3995 251.875 46.0462 253.053 44.5182 255.664C43.8852 256.775 43.3723 257.753 43.0012 258.564C42.8912 258.777 42.7928 258.996 42.7065 259.22C42.9628 259.069 43.2072 258.898 43.4378 258.709L43.5032 258.664Z" fill="#88B04B"/>
<path fill-rule="evenodd" clip-rule="evenodd" d="M38.5593 238.185C34.6966 238.095 30.8775 239.031 27.4786 240.902C24.0796 242.773 21.2182 245.513 19.1764 248.852C14.8108 256.453 16.0877 261.353 18.205 261.842C18.9825 262.007 19.7904 261.938 20.5297 261.642C21.2842 259.293 22.2753 257.028 23.4873 254.886C25.1026 252.064 26.4668 250.319 28.2676 250.33C28.606 250.365 28.921 250.521 29.1554 250.772C29.3898 251.023 29.5279 251.351 29.5445 251.697C29.5445 252.319 29.2826 254.108 26.9579 257.098C25.8432 258.575 24.5319 259.888 23.0617 260.998L22.4723 261.465C21.9796 262.397 21.6753 263.421 21.5774 264.476C21.5774 265.687 22.1668 265.687 22.3523 265.687C23.5092 265.687 25.6265 263.465 26.7178 262.087C26.7942 261.987 26.8706 261.92 26.947 261.831C27.0998 261.509 27.2417 261.187 27.4272 260.831L27.5036 260.665C27.8311 260.098 28.1148 259.609 28.595 259.609C29.0752 259.609 29.4136 259.876 29.4136 260.309C29.3771 260.602 29.2554 260.876 29.0643 261.098C28.9842 261.208 28.9112 261.323 28.846 261.442C28.1635 262.589 27.6626 263.838 27.3618 265.143C27.3618 265.143 27.3617 265.565 27.711 265.565C28.3112 265.565 29.7846 264.165 30.9088 262.865C31.9019 261.253 33.6154 259.831 35.2743 259.842C35.6217 259.858 35.9605 259.958 36.2623 260.134C36.5642 260.31 36.8204 260.556 37.0096 260.853C37.1405 260.698 37.3151 260.509 37.4679 260.309C37.97 259.709 38.1664 259.498 38.3411 259.498C38.5157 259.498 39.4325 259.609 39.4325 260.109C39.3891 260.364 39.2841 260.605 39.1269 260.809C38.8147 261.292 38.5584 261.81 38.3629 262.354C38.1022 263.268 37.9052 264.2 37.7735 265.143C37.5989 266.109 37.4134 267.187 37.1624 268.354H37.6098C38.8758 268.354 39.5743 268.732 39.5743 269.41C39.5787 269.531 39.5591 269.652 39.5168 269.766C39.4745 269.88 39.4103 269.984 39.3279 270.072C39.2455 270.16 39.1466 270.23 39.0371 270.279C38.9276 270.327 38.8097 270.353 38.6903 270.354C38.5577 270.35 38.4273 270.318 38.3072 270.261C38.187 270.204 38.0797 270.122 37.9918 270.021C37.9183 269.935 37.8277 269.866 37.7262 269.818C37.6247 269.77 37.5144 269.745 37.4025 269.743H36.8895H36.7804C34.9578 276.221 32.8842 279.11 30.0575 279.099C29.7525 279.101 29.4506 279.037 29.1713 278.912C28.892 278.788 28.6415 278.605 28.4358 278.376C28.2302 278.146 28.074 277.876 27.9773 277.581C27.8807 277.287 27.8457 276.975 27.8747 276.666C27.8747 273.843 31.1489 269.843 35.4162 268.687C35.9291 266.254 36.2565 264.509 36.3766 263.62C34.925 265.309 32.5349 267.165 31.378 267.154C30.9863 267.074 30.6364 266.852 30.3935 266.529C30.1506 266.206 30.0312 265.804 30.0575 265.398C29.2538 266.225 28.2223 266.783 27.0998 266.998C26.7099 266.948 26.354 266.747 26.1061 266.437C25.8581 266.126 25.7371 265.73 25.7683 265.332C25.782 265.19 25.8038 265.049 25.8338 264.909C24.6224 266.02 23.2691 267.065 22.2104 267.065C21.6254 267.037 21.0733 266.781 20.6674 266.352C20.2615 265.922 20.0326 265.35 20.0277 264.754C20.0529 264.001 20.1701 263.254 20.3769 262.531C16.5025 267.221 18.2596 273.388 20.5624 276.521C24.5023 281.888 31.3453 284.955 38.483 284.989C44.4954 284.881 50.227 282.379 54.4495 278.02C58.672 273.661 61.0494 267.791 61.0723 261.668C61.0951 255.546 58.7616 249.658 54.5717 245.266C50.3818 240.874 44.669 238.328 38.6575 238.174L38.5593 238.185ZM31.0725 256.653C30.625 256.653 30.4285 256.031 30.4285 255.464C30.4284 255.313 30.4583 255.164 30.5165 255.026C30.5747 254.887 30.66 254.762 30.7672 254.658C30.8744 254.554 31.0013 254.473 31.1401 254.421C31.2788 254.369 31.4266 254.345 31.5745 254.353C31.9674 254.353 32.3603 254.653 32.3603 255.342C32.3396 255.683 32.1973 256.004 31.9601 256.246C31.7229 256.487 31.4072 256.632 31.0725 256.653ZM55.0829 257.764C55.2941 257.713 55.5098 257.683 55.7268 257.675C56.3707 257.675 56.458 258.053 56.458 258.453C56.458 259.387 54.8319 259.398 53.6968 259.398C51.8961 262.731 50.8156 265.409 50.8156 266.632C50.8138 266.776 50.8398 266.92 50.892 267.054C50.9465 267.168 50.9763 267.293 50.9793 267.421C50.9793 267.522 50.9594 267.622 50.9208 267.715C50.8821 267.808 50.8255 267.892 50.7543 267.963C50.683 268.033 50.5986 268.089 50.506 268.125C50.4135 268.162 50.3146 268.179 50.2153 268.176C49.626 268.176 49.3313 267.721 49.3313 266.832C49.3778 266.174 49.5024 265.525 49.7024 264.898C48.48 266.176 47.2686 267.121 46.2863 267.121C45.1186 267.121 44.4965 266.432 44.4965 265.132C44.5384 264.544 44.6408 263.963 44.802 263.398C44.8611 263.164 44.9085 262.926 44.9439 262.687C44.9439 262.365 44.9439 262.331 44.6711 262.331C43.4706 262.331 40.8185 265.12 40.371 266.598C40.1637 267.232 39.8362 267.532 39.3779 267.532C38.9195 267.532 38.6467 267.198 38.6467 266.487C38.6467 265.076 40.5675 259.287 43.1868 255.053C45.0531 252.053 46.9521 250.264 48.2727 250.275C48.6331 250.277 48.9789 250.42 49.2388 250.675C49.4986 250.929 49.6529 251.275 49.6696 251.642C49.6696 252.531 49.3313 254.397 47.1704 256.909C46.0442 258.199 44.7773 259.355 43.3942 260.353C42.9469 260.673 42.5204 261.022 42.1172 261.398C41.7342 261.9 41.4355 262.463 41.2332 263.065C42.2658 261.812 43.7147 260.989 45.3041 260.753C45.4833 260.726 45.6662 260.741 45.8386 260.798C46.0109 260.855 46.1678 260.952 46.297 261.081C46.4262 261.211 46.524 261.369 46.5828 261.544C46.6415 261.718 46.6596 261.904 46.6356 262.087C46.5998 262.625 46.5232 263.16 46.4064 263.687C46.3026 264.11 46.2333 264.541 46.199 264.976C46.199 265.632 46.4828 265.632 46.6029 265.632C47.3341 265.632 48.5891 264.52 50.3572 262.154C50.5205 261.899 50.7276 261.677 50.9684 261.498C51.3067 260.742 51.656 259.998 51.9834 259.276C50.892 259.276 50.2808 258.987 50.2808 258.498C50.2768 258.377 50.2984 258.258 50.3441 258.147C50.3899 258.036 50.4587 257.936 50.5458 257.855C50.6329 257.774 50.7362 257.713 50.8488 257.676C50.9613 257.639 51.0803 257.628 51.1976 257.642C51.3828 257.639 51.5661 257.681 51.7323 257.764C51.831 257.813 51.939 257.84 52.0488 257.842C52.3135 257.847 52.5776 257.817 52.8346 257.753L53.162 257.164C53.6775 256.166 54.2534 255.201 54.8865 254.275C55.3667 253.575 55.8141 253.164 56.1961 253.164C56.8618 253.164 56.9601 253.597 56.9601 253.853C56.9601 254.108 56.8618 254.553 56.2943 254.964C55.6146 255.787 55.0457 256.699 54.6027 257.675L55.0829 257.764Z" fill="#88B04B"/>
<path fill-rule="evenodd" clip-rule="evenodd" d="M35.938 261.999C35.8944 261.783 35.7774 261.59 35.6076 261.454C35.4379 261.318 35.2263 261.247 35.0103 261.254C33.3842 261.254 31.5179 264.166 31.5179 265.099C31.5119 265.158 31.5178 265.217 31.5351 265.274C31.5524 265.33 31.5808 265.382 31.6186 265.427C31.6564 265.471 31.7028 265.508 31.7549 265.534C31.807 265.56 31.8638 265.574 31.9217 265.577C32.8057 265.588 35.938 262.577 35.938 261.999Z" fill="#88B04B"/>
<path fill-rule="evenodd" clip-rule="evenodd" d="M27.9502 252.243C27.9502 252.098 27.9502 251.998 27.6882 251.998C27.4263 251.998 26.3131 252.609 24.807 255.432C24.0588 256.667 23.4475 257.982 22.9844 259.354C24.0939 258.36 25.0897 257.242 25.9529 256.021C27.6118 253.776 27.9502 252.909 27.9502 252.243Z" fill="#88B04B"/>
<path fill-rule="evenodd" clip-rule="evenodd" d="M30.0144 277.689C31.6951 277.689 33.7142 274.689 34.9693 270.344C32.1862 271.455 29.3923 274.055 29.3813 276.833C29.3813 277.344 29.6324 277.689 30.0144 277.689Z" fill="#88B04B"/>
</g>
<defs>
<clipPath id="clip0_1178:158">
<rect width="62.7" height="285" fill="white"/>
</clipPath>
</defs>
</svg>
