<svg width="24" height="26" viewBox="0 0 24 26" fill="none" xmlns="http://www.w3.org/2000/svg">
<path d="M21.266 18.0226C19.718 16.6986 18.147 15.8966 16.618 17.2186L15.705 18.0176C15.037 18.5976 13.795 21.3076 8.99296 15.7836C4.19196 10.2666 7.04896 9.40765 7.71796 8.83265L8.63596 8.03265C10.157 6.70765 9.58296 5.03965 8.48596 3.32265L7.82396 2.28265C6.72196 0.569645 5.52196 -0.555354 3.99696 0.767645L3.17296 1.48765C2.49896 1.97865 0.614961 3.57465 0.157961 6.60665C-0.392039 10.2446 1.34296 14.4106 5.31796 18.9816C9.28796 23.5546 13.175 25.8516 16.857 25.8116C19.917 25.7786 21.765 24.1366 22.343 23.5396L23.17 22.8186C24.691 21.4966 23.746 20.1506 22.197 18.8236L21.266 18.0226Z" fill="#F8F7F7"/>
</svg>
