<svg width="189" height="430" viewBox="0 0 189 430" fill="none" xmlns="http://www.w3.org/2000/svg">
<g opacity="0.2">
<path d="M20.68 104.28C55.88 97.9 81.4 80.3 93.94 56.1C106.7 79.86 132.44 96.8 168.08 103.18L179.08 80.3C135.52 73.92 111.98 49.5 109.34 23.1H170.06V0H17.38V23.1H78.1C75.46 49.5 51.92 74.8 9.46 81.4L20.68 104.28ZM108.46 140.14V95.48H79.42V140.14H2.2V163.68H185.68V140.14H108.46Z" fill="#F8F7F7"/>
<path d="M122.98 248.82H78.1V227.48H49.06V248.82H3.74V271.7H122.98V248.82ZM41.58 317.68C41.58 307.34 50.38 301.62 63.58 301.62C76.78 301.62 85.58 307.34 85.58 317.68C85.58 328.46 76.78 334.18 63.58 334.18C50.38 334.18 41.58 328.46 41.58 317.68ZM78.1 354.42C99.22 350.02 113.08 336.38 113.08 317.68C113.08 295.02 92.62 279.62 63.58 279.62C34.54 279.62 14.08 295.02 14.08 317.68C14.08 336.38 27.94 350.02 49.06 354.42V371.58C31.24 372.02 14.52 372.02 0 372.02L3.52 395.56C37.84 395.56 83.38 395.56 126.06 387.2L123.86 366.3C109.34 368.5 93.72 369.6 78.1 370.48V354.42ZM188.54 309.1H163.24V226.6H134.2V429.22H163.24V333.08H188.54V309.1Z" fill="#F8F7F7"/>
</g>
</svg>
