<svg width="37" height="166" viewBox="0 0 37 166" fill="none" xmlns="http://www.w3.org/2000/svg">
<g clip-path="url(#clip0_1255:1310)">
<path fill-rule="evenodd" clip-rule="evenodd" d="M33.1733 49.189C33.9125 46.9172 32.4597 45.7652 32.192 44.0565C31.5549 43.7329 31.2363 43.0533 30.7265 42.5614C28.8953 40.8626 26.5216 39.8927 24.0424 39.8301C18.2311 39.6877 10.7696 40.0825 5.44902 39.9984C4.77996 40.6909 3.49284 40.7686 3.16787 41.8171C2.58803 42.0824 1.70232 42.0436 1.21168 42.3996C1.02052 42.6326 1.49843 42.7232 1.37736 43.1439C0.975927 43.5905 0.00102513 43.4611 -0.0117188 44.3024C1.93809 45.2862 3.77957 44.1341 5.53186 43.5581C8.22719 42.6779 12.4454 42.3672 14.58 43.7199C14.9425 43.5905 15.329 43.546 15.7108 43.5897C16.0926 43.6334 16.4597 43.7642 16.7847 43.9724C16.3132 44.8785 15.1853 46.0499 15.8863 47.3638C17.5175 47.312 17.4538 48.9754 18.983 49.0207C20.6652 50.121 22.8062 51.5319 25.1001 52.0885C26.0495 52.3151 27.12 52.2503 27.9547 52.5804C26.8396 52.7099 26.0431 52.2633 25.1001 52.3345C26.7185 52.7616 28.0694 53.1629 29.6624 52.6646C31.2278 52.0056 32.4846 50.7616 33.1733 49.189ZM20.9392 46.6001C20.8867 45.9541 21.0604 45.31 21.4299 44.7814C22.615 44.8914 23.8448 45.2927 25.1001 45.4286C25.5263 45.4272 25.952 45.4553 26.3745 45.5127C27.4704 45.8622 27.3175 47.5515 26.3745 48.1016C25.2594 48.7359 21.2196 48.0887 20.952 46.6195L20.9392 46.6001Z" fill="white"/>
<path fill-rule="evenodd" clip-rule="evenodd" d="M8.64079 32.9566C8.64079 33.3514 7.93349 33.5003 8.15651 33.8692C10.3492 32.8948 12.4268 31.6724 14.35 30.2254C15.8418 29.1987 17.258 28.0631 18.5874 26.8274C20.1931 25.2029 21.1362 23.1123 22.7483 21.5331C24.3577 23.3235 26.1026 24.9833 27.9669 26.4973C29.3285 27.7693 30.8681 28.8293 32.5356 29.6428C33.1728 29.4487 33.3767 28.5167 34.0839 28.6526C32.4209 26.7109 31.172 24.4068 29.5216 22.3551C28.1389 20.6529 26.565 19.2355 25.3608 17.5527C28.585 18.4718 32.9115 18.297 34.6574 15.98C34.8295 15.9152 35.1735 16.0188 35.473 15.8958C36.4798 14.8473 36.6136 13.1839 36.6136 11.43C36.6136 6.97058 34.0202 3.82509 32.2106 0.828446C31.669 0.634279 31.4714 0.0906113 30.8215 0C30.0505 0.485418 28.9418 0.64721 28.2154 1.15852C27.974 1.79464 27.6731 2.40583 27.3169 2.98369C26.8518 3.83803 26.0744 4.38819 26.2592 5.63086C26.5013 7.26186 28.1708 9.28119 28.2982 10.7633C24.7443 10.4374 21.1674 10.4656 17.6188 10.8475C14.8789 11.197 12.362 12.1419 9.87056 13.0027C9.69852 13.404 8.99124 13.2681 8.89566 13.747C10.221 13.4234 11.3998 12.8603 12.9673 13.3328C13.1904 13.3975 13.3369 13.6564 13.5408 13.747C13.9168 13.9088 14.35 13.9671 14.7642 14.1613C16.0086 14.7336 17.2852 15.2307 18.5874 15.6499C14.8725 23.4942 7.0478 27.5588 4.49902 36.2704C4.99603 36.0892 5.17445 35.5779 5.77341 35.5261C6.366 34.2899 7.48109 33.5974 8.64079 32.9566Z" fill="white"/>
<path fill-rule="evenodd" clip-rule="evenodd" d="M28.7129 37.6753C28.514 37.0784 28.269 36.4984 27.9801 35.9407C27.8845 36.0961 27.8845 36.3355 27.5723 36.2708C27.2728 35.9601 26.5464 36.0961 26.5082 35.5265C26.5983 35.568 26.696 35.5895 26.7949 35.5895C26.8938 35.5895 26.9916 35.568 27.0817 35.5265C27.138 35.198 27.3129 34.9026 27.5723 34.6981C27.7125 34.7693 27.8081 34.8987 27.9801 34.944C28.0693 34.491 28.458 34.258 28.6173 33.7855C29.4966 31.3649 26.4445 27.1061 24.2971 26.9961C23.3668 26.9508 21.8567 27.3197 21.0347 27.0802C20.1745 28.3035 18.2948 28.9313 18.3457 30.8082C18.3457 30.5623 18.5496 30.2063 18.7535 30.394C18.7089 31.4231 18.5178 33.3842 19.5691 33.7855C20.1426 34.8016 20.5568 35.9796 21.4425 36.685C22.1335 37.1286 22.9124 37.4115 23.7237 37.5135C24.0295 37.5847 24.3035 37.8177 24.5393 37.8436C24.8961 37.8889 25.8455 37.3905 25.8455 38.1737C26.0541 38.0196 26.2952 37.9172 26.5496 37.8745C26.804 37.8318 27.0648 37.85 27.3111 37.9277C27.3875 38.1866 27.3939 38.5037 27.7189 38.5037C27.9321 38.4434 28.1307 38.3386 28.3018 38.1959C28.473 38.0533 28.613 37.8759 28.7129 37.6753Z" fill="white"/>
<path fill-rule="evenodd" clip-rule="evenodd" d="M20.2312 131.704C20.5817 130.707 21.5884 130.377 22.1428 129.594C21.4234 129.066 20.6422 128.631 19.817 128.3C19.5813 128.422 19.9572 128.643 19.7342 128.72C18.3196 128.254 16.1213 127.724 16.4845 126.015C15.5351 125.918 16.1659 124.151 15.739 123.562C15.8664 123.562 16.0257 123.562 15.9875 123.394C15.7199 122.662 16.3953 121.808 16.3188 121.284C16.241 121.606 16.0969 121.909 15.896 122.171C15.695 122.433 15.4417 122.649 15.1528 122.805C15.414 122.759 15.3758 123.031 15.5669 123.057C15.4969 122.882 15.7008 122.591 15.739 122.805C15.4778 123.62 15.6243 124.792 15.5669 125.51C15.7645 125.51 15.962 125.562 15.9047 125.847C15.6307 125.756 15.7262 125.633 15.4841 125.847C15.2439 125.168 15.1315 124.45 15.1528 123.73C15.0317 123.73 14.8469 123.762 14.8214 123.646C14.8915 122.352 15.0763 120.623 15.739 120.099C15.79 120.054 15.8601 120.196 15.9047 120.183C15.8473 119.899 15.7326 119.814 16.0703 119.931C15.9684 119.051 16.8031 118.507 17.3447 117.989C17.6378 118.17 17.9819 118.3 17.9819 118.753C17.2362 119.364 16.6861 120.186 16.4017 121.115C17.109 120.468 17.4658 119.433 18.3132 118.921C18.3579 119.07 18.0647 119.271 18.3132 119.342C18.4025 118.85 18.8549 119.297 18.8931 119.594C18.7848 119.911 18.3706 119.911 18.3961 120.358C18.6382 120.52 18.9441 119.504 19.3073 120.022C19.3455 119.814 19.1543 119.834 19.2244 119.594C20.0209 118.701 20.5689 118.002 21.8879 117.737C22.0217 117.536 22.0791 117.251 22.2193 117.09C22.6717 116.947 22.5124 117.413 22.8883 117.348C23.0221 116.281 24.0862 116.164 24.5514 115.912C24.6087 113.808 26.8453 113.239 28.2153 112.19C28.5593 112.093 28.5402 112.365 28.7951 112.358C28.8588 111.996 29.2603 111.977 29.2985 111.595C30.2033 111.336 30.3371 110.3 31.4586 110.242C31.586 110.061 31.5541 109.718 31.7963 109.653C32.0664 109.55 32.3431 109.465 32.6246 109.401C33.5422 108.579 33.7588 107.55 33.5422 106.016C32.6947 105.304 32.2296 104.197 30.8787 103.99C30.3116 104.417 29.2284 104.281 28.1324 104.158C27.2467 105.349 26.7178 104.294 25.8003 103.563C25.1784 102.964 24.4406 102.503 23.6338 102.21C22.7609 100.844 21.3399 100.042 21.085 98.0677C22.4104 97.2328 23.6338 97.7894 24.9082 98.1518C26.7433 98.689 29.6617 98.8832 31.2355 98.4107C31.2355 98.5402 31.2355 98.702 31.4012 98.6631V97.7311C29.6043 96.126 26.4375 95.8995 23.4936 95.4464C22.9394 94.2559 22.6294 92.9633 22.5825 91.6472C22.4932 90.8317 22.1619 90.0357 22.3339 89.3625C22.5697 88.4305 24.6215 88.7606 25.7429 88.5988C27.9859 88.2817 29.8337 87.6992 30.5729 86.0682C30.3371 85.2462 29.4578 84.6831 29.4068 83.9517C27.7119 83.3045 25.8576 82.6573 23.9142 82.01C21.9707 81.3628 19.7915 80.8256 18.9186 79.5571C21.7414 77.02 27.5844 78.8646 30.6557 76.6834C31.363 77.007 31.7198 76.3922 32.4016 76.4245C32.4845 75.9715 32.8222 75.7773 32.9815 75.4148C32.6756 74.8841 32.1595 74.554 31.9046 73.978C31.7262 74.2304 31.4649 73.8615 31.1527 73.978C28.4319 71.0202 25.9787 67.7906 21.7477 66.3667C20.9258 64.891 18.9058 62.8069 18.6701 60.6193C18.6 59.9721 18.6191 59.1501 19.0014 59.0142C20.6785 58.927 22.3399 59.38 23.7485 60.3087C23.7349 61.8071 23.9875 63.2958 24.494 64.7033C26.2081 65.2211 27.5908 66.3214 29.4896 66.3926C29.77 65.9784 29.9166 66.2178 30.4072 66.1401C30.4709 65.7324 30.9233 65.7453 30.8214 65.3764C31.0253 65.5382 31.1718 65.7583 31.5669 65.7194C31.4012 65.2081 31.86 65.3376 32.0703 65.2081C32.1786 63.9137 33.0515 62.9493 32.7075 61.8296C32.2487 60.1857 30.6366 58.9495 29.3813 58.0239C30.0185 58.8524 32.7903 60.7811 31.7963 61.9979C30.7768 59.4802 28.8524 57.8816 26.6987 56.503C26.5023 55.4318 26.678 54.3246 27.1957 53.3704C25.5518 52.7232 23.5255 53.2604 23.2005 54.7231C21.5758 54.4879 19.9308 54.4314 18.2941 54.5548C18.0966 54.6131 18.1667 54.9432 17.9564 54.982C15.3567 55.4415 15.5542 58.4899 15.7963 61.15C15.9748 63.1564 17.1217 64.3473 17.7907 65.5447C16.8095 65.7777 16.4017 67.0527 16.2934 68.4248C15.9365 68.3083 16.0321 68.6643 15.8792 68.7614C15.8792 72.2435 18.1794 73.4084 19.9572 75.0977C20.0068 75.0552 20.0658 75.0255 20.1291 75.0112C20.1924 74.9969 20.2582 74.9984 20.3209 75.0156C20.3835 75.0328 20.4411 75.0651 20.4887 75.1098C20.5364 75.1546 20.5727 75.2104 20.5944 75.2725C19.0078 75.9197 16.8796 76.7158 16.2679 78.5086C16.223 79.0212 16.1399 79.5297 16.0193 80.0295C15.9365 80.2302 15.8027 80.2626 15.7709 80.4503C15.5733 81.5246 16.408 82.3919 17.1026 82.9032C18.377 83.8611 20.4797 84.2948 21.8433 85.1038C20.7342 85.417 19.585 85.5588 18.4343 85.5245C18.0711 85.9517 17.5614 85.8675 17.1026 86.2882C16.6897 86.992 16.3277 87.7253 16.0193 88.4823C16.3953 88.7218 17.2937 88.4111 17.6824 88.6506C17.6824 88.9548 17.2938 88.8189 17.3511 89.1619C17.9007 89.4019 18.5033 89.489 19.097 89.4143C19.7342 91.4401 20.0018 93.796 20.9321 95.4982C19.7731 95.96 18.6577 96.5276 17.5996 97.1939C17.6888 98.0483 17.058 98.1648 16.8477 98.7149C17.2045 99.8346 18.498 100.314 18.3515 101.673C17.6187 101.938 16.9943 102.818 16.4399 103.278C16.1786 103.491 15.8027 103.414 15.6944 103.53C15.4013 103.996 15.4841 104.825 15.4395 105.563C15.3312 105.647 15.1336 105.647 15.0253 105.731C14.9552 106.087 15.1846 106.132 15.191 106.378C15.0444 106.378 14.7768 106.287 14.8597 106.546C15.2866 108.624 16.6565 109.737 17.7716 111.109C16.3061 113.148 14.7832 115.116 13.3623 117.193C12.6231 119.329 11.4507 122.177 11.8648 124.636C11.8648 124.772 11.6482 124.701 11.6992 124.889C12.1707 126.041 12.3045 127.536 13.1137 128.358C12.7059 128.843 13.3304 129.465 13.2794 130.131C14.1959 130.997 15.3232 131.6 16.5451 131.876C17.767 132.153 19.0394 132.093 20.2312 131.704ZM27.8775 62.1274C27.2913 62.1274 26.3228 61.8426 26.3801 60.9429C27.0428 61.1824 27.3869 61.7325 27.8903 62.1274H27.8775ZM26.2081 72.9489C24.8254 72.8324 23.5574 71.9328 22.2129 71.5962C21.6267 70.729 20.5562 70.3471 20.3841 69.0591C22.8118 69.5251 24.5578 71.415 26.3801 72.7807C26.4247 72.9101 26.3228 72.9554 26.2208 72.9489H26.2081ZM21.0659 105.414C22.13 105.368 22.6207 105.919 23.4745 106.061C22.8373 106.061 22.8373 106.98 22.3977 106.993C21.958 107.006 21.5438 105.834 21.0659 105.414ZM14.9043 120.798C14.7641 120.798 14.745 120.733 14.7386 120.63C14.4009 120.837 14.7386 120.973 14.7386 121.277C14.2862 121.523 14.4136 122.358 14.2352 122.882C14.2352 121.665 14.369 119.911 15.3184 119.413C15.1574 119.601 15.0373 119.822 14.9659 120.061C14.8945 120.299 14.8735 120.551 14.9043 120.798ZM15.5415 119.698C15.3758 119.329 15.7963 118.831 16.0448 118.604C16.0448 119.115 15.6625 119.284 15.5669 119.698H15.5415ZM16.2105 118.513C15.9429 118.365 16.3316 117.627 16.6247 117.504C16.9497 117.989 16.2169 118.054 16.236 118.513H16.2105ZM15.3758 118.604C15.4586 118.371 15.414 118.015 15.7963 118.093C15.7805 118.21 15.7361 118.321 15.6671 118.416C15.598 118.511 15.5066 118.587 15.4013 118.636L15.3758 118.604ZM18.874 118.261C19.0524 118.397 18.5681 118.565 18.5426 118.772C18.2814 118.526 18.7657 118.358 18.8995 118.261H18.874ZM20.7027 117.504C20.2248 118.255 19.4283 118.695 18.874 119.361C18.7962 119.202 18.7405 119.032 18.7083 118.857C19.5239 118.902 19.8999 117.413 20.7282 117.504H20.7027ZM22.7035 116.74C22.5442 116.824 22.4231 116.488 22.3722 116.74C22.3327 116.711 22.3006 116.673 22.2784 116.63C22.2562 116.586 22.2446 116.537 22.2446 116.488C22.2446 116.438 22.2562 116.39 22.2784 116.346C22.3006 116.302 22.3327 116.264 22.3722 116.235C22.3849 116.494 22.5697 116.481 22.729 116.74H22.7035ZM23.7039 115.64C23.551 115.342 23.8632 114.876 24.2838 114.883C24.1181 115.141 24.2009 115.672 23.7294 115.64H23.7039ZM20.518 115.051C20.3332 115.42 19.8808 115.536 19.7724 115.983C19.8935 116.313 20.1165 115.62 20.1866 115.899C19.6322 116.882 18.7593 117.543 18.1858 118.488C17.9055 118.274 17.6378 118.035 17.3575 117.84C18.4662 116.921 19.1034 115.569 20.5625 115.051H20.518ZM12.9481 119.361C13.1201 119.323 13.101 119.484 13.1137 119.614C13.6235 119.284 12.9927 118.682 13.4451 118.429C13.6235 118.429 13.3559 118.882 13.6108 118.604C13.5488 119.285 13.3516 119.945 13.0309 120.546C12.9025 120.378 12.8296 120.173 12.8227 119.96C12.8159 119.747 12.8753 119.538 12.9927 119.361H12.9481ZM12.4447 120.966C12.5636 121.268 12.6105 121.595 12.5818 121.919C12.553 122.243 12.4492 122.555 12.279 122.83C12.107 122.267 12.4893 121.588 12.4893 120.966H12.4447ZM12.1134 123.555C12.2663 122.572 12.2408 123.167 12.279 123.724C12.2344 123.737 12.2663 123.588 12.1452 123.588L12.1134 123.555ZM12.5275 123.471C12.7123 123.471 12.7059 123.685 12.6932 123.892C12.4511 123.989 12.4383 123.633 12.5721 123.504L12.5275 123.471ZM12.4447 124.319C12.4829 124.19 12.553 124.319 12.6932 124.319C12.6392 124.531 12.6392 124.754 12.6932 124.966C12.4702 125.322 12.6805 124.416 12.4893 124.351L12.4447 124.319ZM13.3623 123.983C13.3623 123.801 13.0691 124.067 13.1137 124.235C12.4765 121.148 14.1842 119.057 15.1082 117.044H15.3567C15.2229 117.886 14.4774 118.643 14.0823 119.633C13.4472 121.507 13.3326 123.522 13.7509 125.458C13.3176 125.393 13.5725 124.494 13.4196 124.015L13.3623 123.983Z" fill="white"/>
<path fill-rule="evenodd" clip-rule="evenodd" d="M25.3987 150.662C25.9206 150.264 26.3972 149.808 26.8197 149.302C28.0495 147.775 28.1833 147.076 28.1833 146.849C28.1833 146.759 28.1833 146.707 28.0303 146.707C27.6735 146.707 26.8834 147.393 25.9913 148.914C25.6218 149.561 25.3223 150.131 25.1056 150.603C25.0414 150.727 24.984 150.855 24.9336 150.985C25.0832 150.897 25.2259 150.798 25.3605 150.687L25.3987 150.662Z" fill="white"/>
<path fill-rule="evenodd" clip-rule="evenodd" d="M22.5124 138.733C20.2572 138.681 18.0275 139.226 16.043 140.316C14.0586 141.405 12.388 143.001 11.1959 144.946C8.6471 149.373 9.39261 152.228 10.6288 152.512C11.0827 152.609 11.5544 152.568 11.986 152.396C12.4265 151.027 13.0052 149.709 13.7128 148.461C14.6558 146.817 15.4523 145.801 16.5037 145.807C16.7013 145.827 16.8852 145.918 17.022 146.065C17.1589 146.211 17.2395 146.402 17.2492 146.603C17.2492 146.966 17.0963 148.008 15.7391 149.749C15.0883 150.61 14.3227 151.374 13.4643 152.021L13.1202 152.292C12.8325 152.836 12.6548 153.432 12.5977 154.046C12.5977 154.752 12.9418 154.752 13.0501 154.752C13.7255 154.752 14.9617 153.457 15.5989 152.655C15.6435 152.597 15.6881 152.558 15.7327 152.506C15.8219 152.318 15.9047 152.131 16.0131 151.923L16.0577 151.826C16.2488 151.496 16.4145 151.212 16.6949 151.212C16.9752 151.212 17.1728 151.367 17.1728 151.619C17.1515 151.79 17.0804 151.95 16.9689 152.079C16.9221 152.143 16.8795 152.21 16.8414 152.279C16.4429 152.947 16.1505 153.675 15.9748 154.435C15.9748 154.435 15.9748 154.681 16.1787 154.681C16.5292 154.681 17.3894 153.865 18.0457 153.108C18.6256 152.169 19.626 151.341 20.5945 151.347C20.7973 151.357 20.9951 151.415 21.1713 151.517C21.3476 151.62 21.4972 151.763 21.6076 151.936C21.6841 151.846 21.786 151.736 21.8752 151.619C22.1683 151.27 22.2831 151.147 22.385 151.147C22.487 151.147 23.0222 151.212 23.0222 151.503C22.9969 151.652 22.9356 151.792 22.8438 151.911C22.6616 152.192 22.5119 152.494 22.3977 152.81C22.2455 153.343 22.1306 153.886 22.0536 154.435C21.9517 154.998 21.8434 155.626 21.6968 156.305H21.9581C22.6972 156.305 23.105 156.525 23.105 156.92C23.1076 156.991 23.0962 157.061 23.0715 157.128C23.0467 157.194 23.0092 157.254 22.9611 157.306C22.913 157.357 22.8553 157.398 22.7914 157.426C22.7275 157.454 22.6586 157.469 22.5889 157.47C22.5115 157.468 22.4353 157.449 22.3652 157.416C22.2951 157.383 22.2324 157.335 22.1811 157.276C22.1381 157.226 22.0853 157.186 22.026 157.158C21.9667 157.13 21.9023 157.115 21.837 157.114H21.5375H21.4738C20.4097 160.888 19.199 162.57 17.5487 162.564C17.3707 162.565 17.1944 162.528 17.0313 162.455C16.8683 162.382 16.722 162.276 16.6019 162.142C16.4818 162.009 16.3907 161.851 16.3342 161.68C16.2778 161.508 16.2574 161.326 16.2743 161.146C16.2743 159.502 18.1859 157.172 20.6773 156.499C20.9768 155.082 21.1679 154.066 21.238 153.548C20.3906 154.532 18.9951 155.613 18.3197 155.606C18.091 155.56 17.8867 155.43 17.7449 155.242C17.6031 155.054 17.5333 154.82 17.5487 154.584C17.0795 155.065 16.4772 155.39 15.8219 155.516C15.5943 155.486 15.3865 155.369 15.2417 155.188C15.0969 155.008 15.0263 154.777 15.0445 154.545C15.0525 154.462 15.0652 154.38 15.0827 154.299C14.3755 154.946 13.5854 155.554 12.9673 155.554C12.6257 155.538 12.3034 155.389 12.0664 155.139C11.8294 154.888 11.6958 154.555 11.6929 154.208C11.7076 153.77 11.7761 153.335 11.8968 152.914C9.63474 155.645 10.6606 159.237 12.0051 161.062C14.3054 164.188 18.3006 165.975 22.4678 165.994C25.9781 165.931 29.3245 164.474 31.7898 161.935C34.255 159.396 35.6431 155.977 35.6564 152.411C35.6697 148.845 34.3073 145.415 31.8611 142.857C29.4149 140.3 26.0795 138.817 22.5698 138.727L22.5124 138.733ZM18.1413 149.49C17.88 149.49 17.7653 149.127 17.7653 148.797C17.7652 148.71 17.7827 148.623 17.8167 148.542C17.8507 148.461 17.9005 148.388 17.9631 148.328C18.0257 148.267 18.0997 148.22 18.1808 148.19C18.2618 148.159 18.3481 148.146 18.4344 148.15C18.6638 148.15 18.8932 148.325 18.8932 148.726C18.8811 148.925 18.798 149.112 18.6596 149.253C18.5211 149.393 18.3368 149.478 18.1413 149.49ZM32.1596 150.137C32.2829 150.107 32.4088 150.09 32.5355 150.085C32.9114 150.085 32.9624 150.305 32.9624 150.538C32.9624 151.082 32.013 151.089 31.3503 151.089C30.299 153.03 29.6681 154.59 29.6681 155.302C29.6671 155.386 29.6823 155.47 29.7127 155.548C29.7446 155.615 29.762 155.687 29.7637 155.762C29.7637 155.82 29.7521 155.879 29.7296 155.933C29.707 155.987 29.6739 156.036 29.6323 156.077C29.5907 156.118 29.5414 156.151 29.4874 156.172C29.4333 156.193 29.3756 156.203 29.3177 156.202C28.9736 156.202 28.8016 155.936 28.8016 155.418C28.8287 155.036 28.9014 154.657 29.0182 154.292C28.3045 155.037 27.5972 155.587 27.0238 155.587C26.342 155.587 25.9788 155.185 25.9788 154.428C26.0032 154.086 26.063 153.748 26.1572 153.419C26.1917 153.282 26.2193 153.144 26.24 153.004C26.24 152.817 26.24 152.797 26.0807 152.797C25.3798 152.797 23.8314 154.422 23.5702 155.283C23.4491 155.651 23.2579 155.826 22.9903 155.826C22.7227 155.826 22.5634 155.632 22.5634 155.218C22.5634 154.396 23.6849 151.024 25.2141 148.558C26.3037 146.81 27.4125 145.768 28.1835 145.775C28.3939 145.776 28.5958 145.86 28.7475 146.008C28.8992 146.156 28.9893 146.357 28.9991 146.571C28.9991 147.089 28.8015 148.176 27.5399 149.639C26.8824 150.39 26.1427 151.064 25.3352 151.645C25.0741 151.831 24.8251 152.035 24.5897 152.254C24.366 152.546 24.1916 152.874 24.0736 153.224C24.6764 152.495 25.5223 152.016 26.4503 151.878C26.5549 151.862 26.6617 151.871 26.7623 151.904C26.863 151.937 26.9546 151.994 27.03 152.069C27.1054 152.145 27.1625 152.237 27.1968 152.338C27.2311 152.44 27.2417 152.548 27.2277 152.655C27.2068 152.969 27.1621 153.28 27.0939 153.587C27.0333 153.833 26.9928 154.084 26.9728 154.338C26.9728 154.719 27.1385 154.719 27.2086 154.719C27.6355 154.719 28.3682 154.072 29.4005 152.694C29.4958 152.546 29.6167 152.416 29.7573 152.312C29.9549 151.872 30.1588 151.438 30.3499 151.017C29.7127 151.017 29.3559 150.849 29.3559 150.564C29.3536 150.494 29.3662 150.425 29.3929 150.36C29.4196 150.295 29.4597 150.237 29.5106 150.19C29.5615 150.143 29.6218 150.107 29.6875 150.086C29.7532 150.064 29.8227 150.057 29.8911 150.066C29.9993 150.064 30.1063 150.089 30.2034 150.137C30.261 150.166 30.324 150.181 30.3882 150.182C30.5427 150.186 30.6969 150.168 30.8469 150.131L31.0381 149.788C31.339 149.206 31.6753 148.644 32.0449 148.105C32.3252 147.697 32.5865 147.458 32.8095 147.458C33.1982 147.458 33.2555 147.71 33.2555 147.859C33.2555 148.008 33.1982 148.267 32.8668 148.506C32.47 148.986 32.1379 149.517 31.8792 150.085L32.1596 150.137Z" fill="white"/>
<path fill-rule="evenodd" clip-rule="evenodd" d="M20.9833 152.602C20.9579 152.476 20.8896 152.364 20.7905 152.285C20.6914 152.205 20.5678 152.164 20.4417 152.168C19.4923 152.168 18.4027 153.864 18.4027 154.408C18.3992 154.442 18.4026 154.476 18.4127 154.509C18.4228 154.542 18.4394 154.572 18.4615 154.598C18.4836 154.624 18.5106 154.646 18.5411 154.661C18.5715 154.676 18.6047 154.684 18.6385 154.686C19.1546 154.692 20.9833 152.938 20.9833 152.602Z" fill="white"/>
<path fill-rule="evenodd" clip-rule="evenodd" d="M16.3191 146.92C16.3191 146.836 16.3192 146.777 16.1662 146.777C16.0133 146.777 15.3634 147.133 14.484 148.777C14.0472 149.497 13.6903 150.263 13.4199 151.062C14.0677 150.483 14.6491 149.832 15.1531 149.12C16.1216 147.813 16.3191 147.308 16.3191 146.92Z" fill="white"/>
<path fill-rule="evenodd" clip-rule="evenodd" d="M17.5239 161.741C18.5052 161.741 19.684 159.994 20.4167 157.463C18.7919 158.11 17.1607 159.625 17.1543 161.243C17.1543 161.54 17.3009 161.741 17.5239 161.741Z" fill="white"/>
</g>
<defs>
<clipPath id="clip0_1255:1310">
<rect width="36.6068" height="166" fill="white"/>
</clipPath>
</defs>
</svg>
