<svg width="146" height="22" viewBox="0 0 146 22" fill="none" xmlns="http://www.w3.org/2000/svg">
<path opacity="0.5" d="M0.23 -1.43051e-06H5.21C6.91 -1.43051e-06 8.15 0.399999 8.93 1.2C9.71 1.98 10.1 3.19 10.1 4.83V5.67C10.1 6.75 9.92 7.63 9.56 8.31C9.22 8.99 8.69 9.48 7.97 9.78V9.84C9.61 10.4 10.43 11.86 10.43 14.22V16.02C10.43 17.64 10 18.88 9.14 19.74C8.3 20.58 7.06 21 5.42 21H0.23V-1.43051e-06ZM4.82 8.55C5.48 8.55 5.97 8.38 6.29 8.04C6.63 7.7 6.8 7.13 6.8 6.33V5.16C6.8 4.4 6.66 3.85 6.38 3.51C6.12 3.17 5.7 3 5.12 3H3.53V8.55H4.82ZM5.42 18C6 18 6.43 17.85 6.71 17.55C6.99 17.23 7.13 16.69 7.13 15.93V14.1C7.13 13.14 6.96 12.48 6.62 12.12C6.3 11.74 5.76 11.55 5 11.55H3.53V18H5.42ZM14.9202 12.06L10.9302 -1.43051e-06H14.4402L16.6902 7.71H16.7502L19.0002 -1.43051e-06H22.2102L18.2202 12.06V21H14.9202V12.06ZM28.5015 -1.43051e-06H33.2115L35.3115 15.03H35.3715L37.4715 -1.43051e-06H42.1815V21H39.0615V5.1H39.0015L36.6015 21H33.8415L31.4415 5.1H31.3815V21H28.5015V-1.43051e-06ZM47.1941 -1.43051e-06H51.6641L55.0841 21H51.7841L51.1841 16.83V16.89H47.4341L46.8341 21H43.7741L47.1941 -1.43051e-06ZM50.7941 14.04L49.3241 3.66H49.2641L47.8241 14.04H50.7941ZM56.6851 -1.43051e-06H61.7251C63.3651 -1.43051e-06 64.5951 0.439999 65.4151 1.32C66.2351 2.2 66.6451 3.49 66.6451 5.19V15.81C66.6451 17.51 66.2351 18.8 65.4151 19.68C64.5951 20.56 63.3651 21 61.7251 21H56.6851V-1.43051e-06ZM61.6651 18C62.2051 18 62.6151 17.84 62.8951 17.52C63.1951 17.2 63.3451 16.68 63.3451 15.96V5.04C63.3451 4.32 63.1951 3.8 62.8951 3.48C62.6151 3.16 62.2051 3 61.6651 3H59.9851V18H61.6651ZM67.944 -1.43051e-06H71.274L73.434 16.29H73.494L75.654 -1.43051e-06H78.684L75.504 21H71.124L67.944 -1.43051e-06ZM81.9695 -1.43051e-06H86.4395L89.8595 21H86.5595L85.9595 16.83V16.89H82.2095L81.6095 21H78.5495L81.9695 -1.43051e-06ZM85.5695 14.04L84.0995 3.66H84.0395L82.5995 14.04H85.5695ZM91.4605 -1.43051e-06H96.3505C98.0505 -1.43051e-06 99.2905 0.399999 100.07 1.2C100.85 1.98 101.24 3.19 101.24 4.83V6.12C101.24 8.3 100.52 9.68 99.0805 10.26V10.32C99.8805 10.56 100.44 11.05 100.76 11.79C101.1 12.53 101.27 13.52 101.27 14.76V18.45C101.27 19.05 101.29 19.54 101.33 19.92C101.37 20.28 101.47 20.64 101.63 21H98.2705C98.1505 20.66 98.0705 20.34 98.0305 20.04C97.9905 19.74 97.9705 19.2 97.9705 18.42V14.58C97.9705 13.62 97.8105 12.95 97.4905 12.57C97.1905 12.19 96.6605 12 95.9005 12H94.7605V21H91.4605V-1.43051e-06ZM95.9605 9C96.6205 9 97.1105 8.83 97.4305 8.49C97.7705 8.15 97.9405 7.58 97.9405 6.78V5.16C97.9405 4.4 97.8005 3.85 97.5205 3.51C97.2605 3.17 96.8405 3 96.2605 3H94.7605V9H95.9605ZM103.56 -1.43051e-06H112.56V3H106.86V8.55H111.39V11.55H106.86V18H112.56V21H103.56V-1.43051e-06ZM115.239 21.12C114.639 21.12 114.129 21.08 113.709 21V18C114.029 18.08 114.389 18.12 114.789 18.12C115.449 18.12 115.939 17.96 116.259 17.64C116.579 17.3 116.739 16.79 116.739 16.11V-1.43051e-06H120.039V16.02C120.039 17.74 119.639 19.02 118.839 19.86C118.059 20.7 116.859 21.12 115.239 21.12ZM122.398 -1.43051e-06H125.698V8.85L129.898 -1.43051e-06H133.198L129.268 7.71L133.258 21H129.808L127.018 11.64L125.698 14.31V21H122.398V-1.43051e-06ZM137.37 -1.43051e-06H141.84L145.26 21H141.96L141.36 16.83V16.89H137.61L137.01 21H133.95L137.37 -1.43051e-06ZM140.97 14.04L139.5 3.66H139.44L138 14.04H140.97Z" fill="white"/>
</svg>
