<svg width="44" height="26" viewBox="0 0 44 26" fill="none" xmlns="http://www.w3.org/2000/svg">
<path d="M42.087 20.1204C41.1291 18.9705 40.0404 17.9398 38.9876 16.9431C38.6132 16.5886 38.2261 16.2221 37.853 15.8577C36.7817 14.8103 36.7427 14.4168 37.5909 13.2271C38.1777 12.4071 38.7998 11.5859 39.4015 10.7918C39.9472 10.0713 40.5116 9.32624 41.0525 8.57874L41.1636 8.42505C42.1974 6.9946 43.2666 5.51547 43.8355 3.73113C43.9833 3.26037 44.1384 2.56761 43.7837 1.98833C43.4292 1.40954 42.7415 1.23296 42.255 1.15048C42.0144 1.10967 41.7754 1.1041 41.5537 1.1041L34.7834 1.09925L34.7275 1.09877C33.7038 1.09877 33.014 1.58116 32.6187 2.57367C32.2413 3.52197 31.8267 4.5318 31.3536 5.49197C30.4122 7.40396 29.2166 9.60613 27.4865 11.4428L27.4134 11.5209C27.2091 11.7405 26.9776 11.9891 26.8084 11.9891C26.7825 11.9891 26.7543 11.9842 26.7223 11.9741C26.364 11.8345 26.1234 10.9669 26.1343 10.5634C26.1345 10.5578 26.1346 10.5523 26.1346 10.5467L26.1299 2.72166C26.1299 2.69453 26.1279 2.66765 26.1244 2.64076C25.9522 1.36873 25.5707 0.576898 24.1292 0.294587C24.0909 0.286957 24.0518 0.283203 24.0128 0.283203H16.9731C15.8262 0.283203 15.1942 0.749362 14.6001 1.44709C14.4398 1.6336 14.106 2.02188 14.2714 2.49288C14.4393 2.97091 14.9842 3.07313 15.1616 3.10631C16.0423 3.27393 16.5388 3.81264 16.6794 4.75392C16.9249 6.38844 16.955 8.13305 16.7743 10.2444C16.724 10.8312 16.6243 11.2844 16.4601 11.6716C16.4219 11.7619 16.2866 12.0568 16.1487 12.0569C16.1048 12.0569 15.978 12.0398 15.7471 11.8806C15.201 11.5065 14.8014 10.9726 14.3356 10.3132C12.751 8.07371 11.4211 5.60666 10.2693 2.76938C9.84215 1.72492 9.04438 1.14019 8.02196 1.12299C6.89853 1.10591 5.87998 1.09768 4.90854 1.09768C3.84712 1.09768 2.86308 1.10749 1.90218 1.12747C1.07959 1.14201 0.510611 1.38859 0.211223 1.86092C-0.0886494 2.33362 -0.0691503 2.95456 0.269236 3.70618C2.97802 9.72821 5.43404 14.1068 8.23294 17.9039C10.1941 20.5608 12.1612 22.3999 14.4228 23.6911C16.8056 25.0542 19.4759 25.7169 22.586 25.7169C22.9386 25.7169 23.3031 25.7083 23.6707 25.6911C25.4779 25.603 26.1484 24.9489 26.2332 23.1893C26.2735 22.29 26.3718 21.3469 26.8139 20.5426C27.0929 20.0359 27.3531 20.0359 27.4386 20.0359C27.6033 20.0359 27.8075 20.1117 28.0268 20.2538C28.4202 20.5105 28.7575 20.8545 29.034 21.155C29.2943 21.4404 29.5516 21.7288 29.8092 22.0173C30.3651 22.6399 30.9399 23.2836 31.5404 23.8942C32.8547 25.2314 34.3026 25.8195 35.9656 25.6918H42.1728C42.186 25.6918 42.1993 25.6913 42.2125 25.6905C42.831 25.6497 43.3667 25.3066 43.6822 24.7492C44.073 24.0587 44.0652 23.1779 43.6611 22.3924C43.2027 21.5041 42.6081 20.7453 42.087 20.1204Z" fill="white"/>
</svg>
